# xmcd CD database file
#
# Track frame offsets:
#	150
#	30442
#	67965
#	88285
#	125317
#	162802
#	185090
#	220877
#	259527
#	288230
#	320067
#	334945
#
# Disc length: 4703 seconds
#
# Revision: 8
# Processed by: cddbd v1.5.1PL0 Copyright (c) Steve Scherf et al.
# Submitted via: CDex 1.51
#
DISCID=ae125d0c
DTITLE=Various Artist - JAZZ CATS
DYEAR=2004
DGENRE=Jazz
TTITLE0=Good and Bad (feat. Ed Thingpen)
TTITLE1=Povo - Good and Bad (feat. Ed Thingpen)
TTITLE2=Nathan Haines - The Last Dance (Make It Good)
TTITLE3=dkd - Getaway (feat. Lady Alma)
TTITLE4=Colonel Red - Gotta Be A Place For Us
TTITLE5=Ian O'Brien - Yemura
TTITLE6=Nao Tokui - Pan Pacific
TTITLE7=Norma Jean Bell - One of Those Nites
TTITLE8=Dwayne Morgan - Everything (Yam Who Rework)
TTITLE9=Agent K - Ride Awey Get Awey (feat. Carleen Anderson)
TTITLE10=Fertile Ground - Spiritual War (Kaidi Tatham Remix)
TTITLE11=Four Tet - Misnomer (12'' Ver.OPR20)
EXTD=YEAR: 2004
EXTT0=
EXTT1=
EXTT2=
EXTT3=
EXTT4=
EXTT5=
EXTT6=
EXTT7=
EXTT8=
EXTT9=
EXTT10=
EXTT11=
PLAYORDER=
